<svg xmlns="http://www.w3.org/2000/svg" xmlns:xlink="http://www.w3.org/1999/xlink" id="bebdbc02-5f56-4bd5-9ad9-bce5f07a2c3e" x="0" y="0" version="1.1" viewBox="0 0 933.4 783.9" style="enable-background:new 0 0 933.4 783.9" xml:space="preserve"><style type="text/css">.st0{fill:#00273d}.st1{fill:#f2f2f2}.st2{fill:#6c63ff}.st3{fill:#ff6584}.st4{fill:#3f3d56}.st5{opacity:.1;enable-background:new}.st6{fill:#40c4ff}.st7{fill:#084994}.st8{fill:#a0616a}.st9{fill:#2f2e41}.st10{fill:#0277bd}.st11{fill:#ffc107}.st12{fill:#de0a17}.st13{fill:#0a4fff}.st14{font-family:&apos;MyriadPro-Regular&apos;}.st15{font-size:80px}.st16{font-size:76px}.st17{fill:#ffd600}.st18{fill:#000001}.st19{fill:#03a9f4}.st20{fill:#01579b}.st21{fill:#02334f}</style><path d="M553.6,756.1c0,15.3-94.6,27.7-211.4,27.8H341c-57,0-108.8-2.9-147-7.7c-1.6-0.2-3.2-0.4-4.8-0.6	c-6.5-0.9-12.6-1.8-18.1-2.7c-26.7-4.7-42.5-10.4-42.5-16.7c0-5.1,10.4-9.8,28.4-13.9c9.6-2.2,21.3-4.1,34.7-5.9	c2.5-0.3,5-0.6,7.6-0.9c37.6-4.4,87.3-7.1,141.7-7.1c10.6,0,21,0.1,31.2,0.3C474.8,730.7,553.6,742.2,553.6,756.1z" class="st0"/><rect width="314.8" height="161.3" x="618.3" y="418.9" class="st1"/><rect width="314.8" height="161.3" x="226.2" y="1" class="st1"/><path d="M542,163.3H225.2V0H542V163.3z M227.2,161.3H540V2H227.2V161.3z" class="st2"/><rect width="314.8" height="161.3" x="617.2" y="5.8" class="st1"/><rect width="314.8" height="161.3" x="226.2" y="208.5" class="st1"/><rect width="314.8" height="161.3" x="617.7" y="208.5" class="st1"/><rect width="314.8" height="161.3" x="226.2" y="416.1" class="st1"/><circle cx="40.3" cy="81.6" r="40.3" class="st1"/><path d="M153.4,41.3c-22.3,0-40.3,18.1-40.3,40.3s18.1,40.3,40.3,40.3s40.3-18.1,40.3-40.3v0	C193.8,59.4,175.7,41.3,153.4,41.3C153.4,41.3,153.4,41.3,153.4,41.3z M170.9,96.6l-3.5,3.5L153,85.6l-14.5,14.5l-3.5-3.5l14.5-14.5	L133,65.7l3.5-3.5L153,78.7l16.5-16.5l3.5,3.5l-16.5,16.5L170.9,96.6z" class="st1"/><polygon points="36.3 100.8 17.7 76.2 21.6 73.3 36.5 93 78.3 45.1 82 48.3" class="st2"/><circle cx="355.7" cy="255.6" r="34.8" class="st3"/><rect width="2.5" height="99.3" x="330.4" y="271" class="st4" transform="matrix(1 -1.879997e-03 1.879997e-03 1 -0.6022 0.6241)"/><path d="M356,283.6c0.2,34.7-24.2,63-24.2,63s-24.7-28-25-62.7c-0.2-34.7,24.2-63,24.2-63S355.8,248.9,356,283.6z" class="st2"/><path d="M356,283.6c0.2,34.7-24.2,63-24.2,63s-24.7-28-25-62.7c-0.2-34.7,24.2-63,24.2-63S355.8,248.9,356,283.6z" class="st5"/><rect width="2.5" height="99.3" x="297.7" y="271" class="st4" transform="matrix(1 -1.879997e-03 1.879997e-03 1 -0.6024 0.5626)"/><path d="M323.4,283.7c0.2,34.7-24.2,63-24.2,63s-24.7-28-25-62.7c-0.2-34.7,24.2-63,24.2-63S323.1,248.9,323.4,283.7z" class="st2"/><ellipse cx="728.5" cy="307.5" class="st5" rx="11.5" ry="1.1"/><ellipse cx="812.1" cy="322.5" class="st5" rx="13" ry="1.3"/><path d="M933.4,578.4H616.7V415.1h316.7L933.4,578.4z M618.7,576.4h312.8V417H618.7V576.4z" class="st2"/><path d="M931.9,366.8H615.2V203.5h316.7V366.8z M617.1,364.8h312.8V205.5H617.1V364.8z" class="st2"/><path d="M224.4,720.3c5.4,19.9,23.8,32.1,23.8,32.1s9.7-19.9,4.3-39.7c-5.4-19.9-23.8-32.1-23.8-32.1	S219,700.5,224.4,720.3z" class="st0"/><path d="M232.3,716c14.7,14.3,16.5,36.4,16.5,36.4s-22.1-1.2-36.8-15.5s-16.5-36.4-16.5-36.4S217.6,701.7,232.3,716z" class="st6"/><path d="M297.7,735c0,0-15.7-1.7-19.2,0c-3.5,1.7-8.7,14,0,20.9c8.7,7,31.4,17.4,38.4,17.4c7,0,14-3.5,14-3.5l-3.5-29.7	L297.7,735z" class="st7"/><path d="M367.5,743.7l1.7,24.4c0,0,22.7,3.5,24.4,0s19.2-12.2,20.9-14s3.5-20.9-7-22.7c-10.5-1.7-14,3.5-14,3.5	L367.5,743.7z" class="st7"/><circle cx="313.4" cy="169.7" r="31.4" class="st8"/><path d="M297.7,188.9L303,222l38.4-7c0,0-1.7-33.2-1.7-36.6S297.7,188.9,297.7,188.9z" class="st8"/><path d="M324.4,131.6l-0.3-2.5c-2.1,0-4.3,0.3-6.3,1c-0.2-1.5-0.1-3.1,0.4-4.5c-2.1,0.5-4,1.4-5.8,2.5l-1.3-4.6	l-17.4,8.6c-6.3,3.1-12.9,6.5-16.4,12.5c-4,6.7-3.3,15.3-0.6,22.6c2.7,7.3,7.3,13.7,10.9,20.6c1.4,3,3,5.8,5,8.4	c6.6,8.2,19.4,9.9,28.7,4.9c3.4-1.8,6.5-4.6,7.9-8.2c0.8-2.2,1-4.5,1.6-6.8c1.1-4.7,2.5-14.4,6.3-17.3c1.7-1.3,5,3,6.4,1.4	c3.6-4.1,2.8-10.5,0.6-15.5c-2.1-5-4.6-9.9-7.4-14.5C335.3,138.4,324.4,131.3,324.4,131.6z" class="st9"/><path d="M221,297.1c0,0-41.9,40.1-36.6,61.1s47.1,82,47.1,82s40.1,20.9,45.4,0s-27.9-15.7-27.9-15.7l-26.2-62.8	l29.7-41.9L221,297.1z" class="st8"/><path d="M380.2,10.9c-4.9,0-8.3,0.4-12.4,1.2c-12.2,2.1-14.4,6.6-14.4,14.7v12.5h28.4v6.3h-29.5h-13.7	c-8.3,0-15.6,3.9-17.9,13.3c-2.6,10.8-2.7,17.5,0,28.8c2.1,8.4,6.6,14.7,15,14.7h11.5V86.3c0-9.4,8.5-18.6,18.2-18.6h22.9	c8,0,15.8-5.9,15.8-13.8V26.8c0-7.7-5.6-13.5-13.3-14.8C390.8,12,385.1,10.9,380.2,10.9z M364.5,23.5c2.6,0,4.7,2.1,4.7,4.7	c0,2.6-2.1,4.7-4.7,4.7c-2.6,0-4.7-2.1-4.7-4.7C359.7,25.6,361.8,23.5,364.5,23.5z" class="st10"/><path d="M378.7,130.9c4.9,0,8.3-0.4,12.4-1.2c12.2-2.1,14.4-6.6,14.4-14.7v-12.5h-28.4v-6.3h29.5h13.7	c8.3,0,15.6-3.9,17.9-13.3c2.6-10.8,2.7-17.5,0-28.8c-2.1-8.4-6.6-14.7-15-14.7h-11.5v16.1c0,9.4-8.5,18.6-18.2,18.6h-22.9	c-8,0-15.8,5.9-15.8,13.8V115c0,7.7,5.6,13.5,13.3,14.8C368.1,129.7,373.9,130.9,378.7,130.9z M394.5,118.2c-2.6,0-4.7-2.1-4.7-4.7	c0-2.6,2.1-4.7,4.7-4.7c2.6,0,4.7,2.1,4.7,4.7C399.2,116.1,397.1,118.2,394.5,118.2z" class="st11"/><path d="M269.8,258.7l-20.9-3.5c0,0-15.7,17.4-20.9,24.4S212.2,304,212.2,304l36.6,26.2l27.9-29.7L269.8,258.7z" class="st0"/><path d="M408.1,236c0,0,38.1-24.5,37.3-41.4s-23.9-70-23.9-70s-18-37.4-25.1-22.1s9.4,31.6,9.4,31.6l10.7,52.1l-29,27.7	L408.1,236z" class="st8"/><path d="M838.9,285.2c0,24-13,45.1-32.3,56.4c-0.5,0.3-1,0.6-1.6,0.9c-9.3,5.1-20,8.1-31.4,8.1	c-8.8,0-17.2-1.7-24.9-4.9c-1.2-0.5-2.4-1.1-3.6-1.6c-21.8-10.6-36.8-32.9-36.8-58.8c0-36.1,29.3-65.4,65.4-65.4	C809.6,219.8,838.9,249.1,838.9,285.2z" class="st1"/><g><path d="M782.1,222.9c1.9,7.4,1.4,11.1-8.8,19.5c-10.2,8.5-11.8,8.6-11.8,13.9c0,5.3,7.8,13.6,11.6,16 c0,0-0.6-1.5-2-3.8c-1.4-2.3-5.7-6.2-4.9-12.1c0.8-5.9,13.3-13.4,16.5-19.1C785.8,231.7,785.1,226.9,782.1,222.9z" class="st12"/><path d="M793.4,241.5c-8.8,2.9-19.7,7.5-19.7,16.4s5.6,7.2,5.6,12c0,4.8-3.1,6.2-3.1,6.2s8.1-3.1,7.7-9.2 c-0.4-6.2-5.2-5.3-5.2-11C778.8,248.6,793.4,241.5,793.4,241.5z" class="st12"/><path d="M762.2,273.1c-8.8,0-14.9,3.3-14.9,5.1s10.8,3.6,22.5,2.8c11.7-0.8,17.9-1.8,22.5-4.6c0,0-8.3,1.9-14.6,1.9 s-24.5,1.1-24-1.6c0.4-2.7,10.9-3.7,10.9-3.7L762.2,273.1L762.2,273.1z" class="st12"/><path d="M758.9,283.4c-4.7,1.7-5.9,3.3-3.2,5.1c2.7,1.8,8.1,2.3,15.5,2.3s17.7-2.6,17.7-2.6l-3.3-2.6 c0,0-4.6,1.7-13.3,1.7S754.9,287.4,758.9,283.4z" class="st12"/><path d="M761.1,293.3c-4.6,1.6-5.5,3.7-1.5,5.6c4,1.9,11.8,2.3,17.5,1.5s10.6-2.6,10.6-2.6s-3.1-1.2-4.6-2.6 c0,0-6.7,1.4-13,1.4S758.6,295.8,761.1,293.3z" class="st12"/><path d="M795.2,273.6c0,0,2.2-3,7.7-0.7c5.5,2.3,5.4,8.5,0.4,12.1c-5,3.7-11.1,4.9-11.1,4.9s11.3-4.9,11-11 C803,272.9,797.8,273.1,795.2,273.6z" class="st12"/><path d="M750.1,305.6c17.3,3.2,43.8-0.1,48.4-1.2c4.7-1.1,3-3.6,3-3.6c1.1,0.8,1.6,1.7,1.2,2.7 c-2.6,5.3-26.9,6.2-34,6.2c-7.1,0-28.8-0.4-28.8-4.3c0-3.8,10.2-6.2,14-5.3C746.8,302,742.5,304.2,750.1,305.6z" class="st12"/><path d="M752.1,311.3c0,0,6.1,4.7,36.7,2c12.2-1,17.3-4,18-7.4c0,0-5.6,3.2-12.5,4.5 C787.3,311.7,775.9,313.7,752.1,311.3z" class="st12"/><path d="M751.5,318.1h-5.1c0.1,4.3,0.2,8,0.2,11.9c0,3-0.1,6.4-0.1,9.9c0,2.3-0.5,4.2-1.6,6c1.2,0.6,2.4,1.1,3.6,1.6 c1.8-2.2,2.9-4.9,2.8-8.4c-0.1-2.8-0.1-6.4-0.1-9.1C751.3,325.9,751.4,322,751.5,318.1z" class="st12"/><path d="M785.7,325.2l-3.1,9.1c-0.6,1.7-1,3.3-1.3,4.9H781c-0.3-1.6-0.6-3.1-1.3-4.9l-1-2.9c-0.7-2.1-1.4-4.3-1.9-6.4 l-5.1,0.6l7.1,18.4l3.7-0.4l4.3-11.2c0.9-2.2,2-4.8,3-7.1L785.7,325.2z" class="st12"/><path d="M800,325.1c-2.1,0-4.4,0.4-7.6,2.2l0.8,2.9l0.3,0.2c2-1.5,3.9-2.2,5.3-2.2c1.9,0,3.3,1.3,3.3,3.3v1.6 c-8.1,1.2-10.1,3.7-10.1,6.7c0,3.1,2.2,4.7,4.6,4.7c2,0,3.8-1.2,5.4-2.6l0.3,0.1c0.3,1.7,1.4,2.3,2.6,2.4c0.5-0.3,1.1-0.6,1.6-0.9 v-12.6C806.5,327,804.2,325.1,800,325.1z M802.1,339.6c-1.3,1.1-2.4,1.7-3.4,1.7c-1.3,0-2.3-0.8-2.3-2.4c0-1.7,1.1-3,5.7-3.6 L802.1,339.6L802.1,339.6z" class="st12"/><path d="M763.1,325.1c-2.1,0-4.4,0.4-7.6,2.2l0.8,2.9l0.3,0.2c2-1.5,3.9-2.2,5.3-2.2c1.9,0,3.3,1.3,3.3,3.3v1.6 c-8.1,1.2-10.1,3.7-10.1,6.7c0,3.1,2.2,4.7,4.6,4.7c2,0,3.8-1.2,5.4-2.6l0.3,0.1c0.4,1.9,1.7,2.4,3.1,2.4c0.3,0,0.7,0,1.1-0.1 v-13.4C769.6,327,767.3,325.1,763.1,325.1z M765.1,339.6c-1.3,1.1-2.4,1.7-3.4,1.7c-1.3,0-2.3-0.8-2.3-2.4c0-1.7,1.1-3,5.7-3.6 V339.6z" class="st12"/></g><text class="st13 st14 st15" transform="matrix(1 0 0 1 752.5846 108.7238)">C</text><text class="st13 st14 st16" transform="matrix(1 0 0 1 708.3651 521.8889)">C++</text><g id="surface2013"><path d="M409.6,361c-36.6,0-66.2-29.7-66.2-66.2s29.7-66.2,66.2-66.2s66.2,29.7,66.2,66.2S446.2,361,409.6,361z" class="st17"/><path d="M362.4,341.9v-94.4h94.4v94.4H362.4z" class="st17"/><path d="M424.1,318.2c1.8,2.9,3.8,5.8,8,5.8c3.5,0,5.4-1.7,5.4-4.2c0-2.9-1.9-3.9-5.8-5.6l-2.1-0.9 c-6.1-2.6-10.2-5.8-10.2-12.7c0-6.3,4.8-11.1,12.4-11.1c5.4,0,9.3,1.9,12,6.7l-6.6,4.2c-1.5-2.6-3-3.6-5.5-3.6c-2.5,0-4,1.6-4,3.6 c0,2.5,1.6,3.6,5.2,5.1l2.1,0.9c7.2,3.1,11.3,6.2,11.3,13.2c0,7.6-6,11.7-14,11.7c-7.9,0-12.3-3.9-14.8-8.8L424.1,318.2z M393.7,318.4c1.3,2.4,3.3,4.2,6.2,4.2c2.8,0,4.4-1.1,4.4-5.4v-27.8h8.7v29.1c0,8.8-5.1,12.9-12.6,12.9c-6.8,0-11.6-4.6-13.6-8.8 L393.7,318.4z" class="st18"/></g><path d="M371,227.3l5.2-5.2l10.5-10.5c0,0,34,14.8,32.3,20.1s-13.1,35.8-13.1,35.8l-15.7,5.2L371,227.3z" class="st0"/><polygon points="415.6 438.2 357.1 496.7 374.7 514.3 450.8 438.2" class="st6"/><polygon points="450.8 490.9 418.6 523.1 401 505.5 415.6 490.9" class="st6"/><rect width="24.8" height="24.8" x="388.6" y="510.6" class="st19" transform="matrix(0.7071 -0.7071 0.7071 0.7071 -252.4036 436.7726)"/><polygon points="450.8 555.2 415.6 555.2 401 540.6 418.6 523.1" class="st20"/><polygon points="401 540.6 427.4 531.8 418.6 523.1" class="st7"/><path d="M283.8,443.6l-15.7,1.7c0,0-7,31.4,0,73.3c7,41.9,15.7,83.8,15.7,83.8s7,136.1,10.5,137.8s34.9,12.2,36.6,1.7	s1.7-249.5,1.7-249.5l24.4,115.2c0,0,3.5,144.8,10.5,144.8c7,0,29.7-1.7,29.7-14s5.2-172.7,5.2-172.7s-1.7-118.6-8.7-122.1	C386.7,440.1,283.8,443.6,283.8,443.6z" class="st21"/><path d="M296,222c0,0,43.6-10.5,48.9-7s31.4,7,31.4,7l29.7,45.4l-8.7,57.6c0,0-1.7,92.5,1.7,108.2	c3.5,15.7,22.7,17.4-17.4,20.9s-47.1-1.7-75,5.2s-50.6-3.5-43.6-10.5c7-7,19.2-118.6,5.2-129.1c-14-10.5-19.2-64.6-19.2-64.6	S296,230.8,296,222z" class="st0"/></svg>